<?xml version="1.0" encoding="UTF-8"?>
<svg xmlns="http://www.w3.org/2000/svg" width="16" height="16" viewBox="0 0 16 16" fill="none">
<path d="M4 1.5V1.5C4 1.22386 4.22386 1 4.5 1H9.08579C9.21839 1 9.34557 1.0527 9.43934 1.14645L11.8536 3.56066C11.9473 3.65443 12 3.78161 12 3.91421V14.5C12 14.7761 11.7761 15 11.5 15H4.5C4.22386 15 4 14.7761 4 14.5V1.5Z" stroke="currentColor" stroke-width="1.2"/>
<path d="M9 1V3.5C9 3.77614 9.22386 4 9.5 4H12" stroke="currentColor" stroke-width="1.2"/>
<path d="M6 7H10" stroke="currentColor" stroke-width="1.2" stroke-linecap="round"/>
<path d="M6 9.5H10" stroke="currentColor" stroke-width="1.2" stroke-linecap="round"/>
<path d="M6 12H8" stroke="currentColor" stroke-width="1.2" stroke-linecap="round"/>
</svg> 